<?xml version="1.0" encoding="utf-8"?>
<!-- Generator: Adobe Illustrator 23.0.3, SVG Export Plug-In . SVG Version: 6.00 Build 0)  -->
<svg version="1.1"
	 id="Layer_1" inkscape:output_extension="org.inkscape.output.svg.inkscape" sodipodi:version="0.32" xmlns:cc="http://creativecommons.org/ns#" xmlns:dc="http://purl.org/dc/elements/1.1/" xmlns:inkscape="http://www.inkscape.org/namespaces/inkscape" xmlns:rdf="http://www.w3.org/1999/02/22-rdf-syntax-ns#" xmlns:sodipodi="http://sodipodi.sourceforge.net/DTD/sodipodi-0.dtd" xmlns:svg="http://www.w3.org/2000/svg"
	 xmlns="http://www.w3.org/2000/svg" xmlns:xlink="http://www.w3.org/1999/xlink" x="0px" y="0px" viewBox="0 0 400 400"
	 style="enable-background:new 0 0 400 400;" xml:space="preserve">
<style type="text/css">
	.st0{fill:#E53517;}
	.st1{fill:#FFFFFF;}
</style>
<defs>
	
	
		<inkscape:perspective  id="perspective10" inkscape:persp3d-origin="200 : 133.33333 : 1" inkscape:vp_x="0 : 200 : 1" inkscape:vp_y="0 : 1000 : 0" inkscape:vp_z="400 : 200 : 1" sodipodi:type="inkscape:persp3d">
		</inkscape:perspective>
</defs>
<sodipodi:namedview  bordercolor="#666666" borderopacity="1.0" gridtolerance="10.0" guidetolerance="10.0" id="base" inkscape:current-layer="Layer_1" inkscape:cx="126.90217" inkscape:cy="200" inkscape:pageopacity="0.0" inkscape:pageshadow="2" inkscape:window-height="942" inkscape:window-width="1231" inkscape:window-x="207" inkscape:window-y="0" inkscape:zoom="1.165" objecttolerance="10.0" pagecolor="#ffffff" showgrid="false">
	</sodipodi:namedview>
<circle class="st0" cx="201.2" cy="200.3" r="189.8"/>
<path class="st1" d="M287.6,198.7c-4.8,0-9.5,0.7-14,1.8l-5.6-14.1h35.5c3.7,0,6.9-2.3,8.3-5.5c0.5-1.1,0.7-2.3,0.7-3.5v-43.5
	c0-1.3-0.3-2.4-0.7-3.5c-0.5-1.1-1.1-2-1.9-2.9c-1.6-1.6-3.9-2.6-6.4-2.6h-39.5H252l7.3-22c0.9-2.8,0.5-5.9-1.3-8.3
	c-1.7-2.4-4.5-3.9-7.5-3.9h-30.9c-5.1,0-9.3,4.2-9.3,9.3c0,5.1,4.1,9.3,9.3,9.3h18l-8.3,24.8c-0.7,2.1-0.6,4.3,0.2,6.4l12.2,30.5
	c-14.6,36.2-47.3,53-68.5,60.3c-0.9-3-2.1-5.9-3.5-8.7l-8.3-51.6h15c5.1,0,9.3-4.2,9.3-9.3c0-5.1-4.2-9.3-9.3-9.3h-49.4
	c-5.1,0-9.3,4.1-9.3,9.3c0,5.1,4.1,9.3,9.3,9.3h15.7l4.7,29.4c-9.4-4.9-20.6-7.8-32.7-7.8c-10.8,0-21,2.5-30.1,7
	c-2.4,1.2-3.2,4.2-1.8,6.5l0.8,1.3c-18.2,10.7-30.6,30.3-30.6,53c0,34.1,27.6,61.7,61.7,61.7c34.1,0,61.7-27.6,61.7-61.7
	c0-1.5-0.3-2.9-0.4-4.3c0.3-0.8,0.6-1.6,0.6-2.7c0-1-0.1-2.4-0.2-3.5c21.4-6.9,54.4-22.6,74.5-56.2l5.5,13.7
	c-18.2,10.7-30.6,30.3-30.6,53c0,34.1,27.6,61.7,61.7,61.7s61.7-27.6,61.7-61.7C349.3,226.4,321.7,198.7,287.6,198.7 M114.7,303.7
	c-23.8,0-43.2-19.4-43.2-43.2c0-15.8,8.7-29.6,21.4-37.1l15.7,26.6c-3.6,2.1-6.2,5.9-6.2,10.5c0,6.8,5.5,12.3,12.3,12.3
	c6.8,0,12.4-5.5,12.4-12.3H158C158,284.3,138.6,303.7,114.7,303.7 M287.6,303.7c-23.8,0-43.2-19.4-43.2-43.2
	c0-14.8,7.5-27.9,19-35.7l12.7,31.8c-0.4,1.3-0.8,2.5-0.8,3.9c0,6.8,5.5,12.3,12.3,12.3c6.8,0,12.3-5.5,12.3-12.3
	c0-4.8-2.8-8.7-6.7-10.8L280.6,218c2.3-0.4,4.6-0.7,7-0.7c23.8,0,43.2,19.4,43.2,43.2C330.8,284.3,311.4,303.7,287.6,303.7"/>
</svg>
